<svg xmlns="http://www.w3.org/2000/svg" viewBox="0 0 200 200" width="200" height="200">
  <defs>
    <linearGradient id="grad" x1="0%" y1="0%" x2="100%" y2="100%">
      <stop offset="0%" style="stop-color:#0F4C75;stop-opacity:1" />
      <stop offset="100%" style="stop-color:#1873A8;stop-opacity:1" />
    </linearGradient>
  </defs>
  <rect x="10" y="10" width="180" height="180" rx="40" fill="url(#grad)"/>
  <path d="M100 35 L145 55 Q148 56 148 59 L148 100 Q148 135 100 165 Q52 135 52 100 L52 59 Q52 56 55 55 Z" 
        fill="none" stroke="white" stroke-width="5" stroke-linejoin="round"/>
  <path d="M100 45 L138 62 L138 98 Q138 128 100 155 Q62 128 62 98 L62 62 Z" 
        fill="rgba(255,255,255,0.06)"/>
  <text x="100" y="118" text-anchor="middle" font-family="'Playfair Display', Georgia, serif" font-size="52" font-weight="700" fill="white">£</text>
  <circle cx="142" cy="52" r="14" fill="#1B9C85"/>
  <path d="M135 52 L140 57 L150 46" fill="none" stroke="white" stroke-width="2.5" stroke-linecap="round" stroke-linejoin="round"/>
</svg>
